<svg width="32" height="32" viewBox="0 0 32 32" fill="none" xmlns="http://www.w3.org/2000/svg">
<rect width="32" height="32" rx="16" fill="#F3EEFC"/>
<rect x="0.5" y="0.5" width="31" height="31" rx="15.5" stroke="#5F4983" stroke-opacity="0.16"/>
<path d="M7.6566 23.8708H11.0195C11.8113 23.8708 12.2072 23.8708 12.5605 23.7729C12.9479 23.658 13.3012 23.4537 13.5949 23.1727C13.8646 22.9156 14.0592 22.5751 14.4432 21.9032L14.4435 21.9027L18.8163 14.1729C19.2037 13.496 19.3953 13.1555 19.4804 12.7979C19.5741 12.4105 19.5741 12.0019 19.4804 11.6145C19.396 11.2597 19.2025 10.9217 18.8212 10.2553L18.8208 10.2547L17.1051 7.25974C16.7518 6.63823 16.573 6.3275 16.3474 6.21255C16.1047 6.08914 15.8153 6.08914 15.5726 6.21255C15.347 6.3275 15.1682 6.63823 14.8149 7.25974L6.5115 21.8957C6.16242 22.5086 5.9879 22.8151 6.00065 23.0663C6.01768 23.3387 6.15818 23.5856 6.38803 23.7346C6.6009 23.8708 6.94997 23.8708 7.6566 23.8708Z" fill="#E84142"/>
<path d="M24.3307 23.8712H19.5119C18.801 23.8712 18.4435 23.8712 18.2349 23.735C18.005 23.586 17.8645 23.3349 17.8475 23.0625C17.8348 22.8132 18.0107 22.5096 18.3628 21.9019L18.3629 21.9018L20.7762 17.7584C21.1295 17.1497 21.3083 16.8474 21.5297 16.7325C21.7723 16.6091 22.0575 16.6091 22.3002 16.7325C22.5199 16.8445 22.6912 17.1341 23.0304 17.7077C23.8631 19.1151 24.6871 20.528 25.5063 21.9433C25.8409 22.5206 26.0117 22.8153 25.9994 23.0582C25.9866 23.3306 25.8418 23.5818 25.612 23.7308C25.3991 23.8712 25.0416 23.8712 24.3307 23.8712H24.3307Z" fill="#E84142"/>
</svg>