<svg width="32" height="32" viewBox="0 0 32 32" fill="none" xmlns="http://www.w3.org/2000/svg">
<rect width="32" height="32" rx="16" fill="#F3EEFC"/>
<path d="M12.1156 14.4042L15.9996 10.5203L19.8856 14.4062L22.1456 12.1462L15.9996 6.00006L9.85562 12.1442L12.1156 14.4042Z" fill="#F3BA2F"/>
<path d="M10.52 15.9996L8.2601 13.7397L6.00005 15.9997L8.25999 18.2597L10.52 15.9996Z" fill="#F3BA2F"/>
<path d="M12.1158 17.5958L15.9998 21.4797L19.8857 17.5939L22.1458 19.8539L15.9998 25.9999L9.85254 19.8528L12.1158 17.5958Z" fill="#F3BA2F"/>
<path d="M23.74 18.2606L26 16.0005L23.7401 13.7406L21.48 16.0007L23.74 18.2606Z" fill="#F3BA2F"/>
<path d="M18.2919 15.9988L15.9995 13.7055L13.7083 15.9968L15.9995 18.2945L18.2919 15.9988Z" fill="#F3BA2F"/>
<rect x="0.5" y="0.5" width="31" height="31" rx="15.5" stroke="#5F4983" stroke-opacity="0.16"/>
</svg>