<svg width="32" height="32" viewBox="0 0 32 32" fill="none" xmlns="http://www.w3.org/2000/svg">
<rect width="32" height="32" rx="16" fill="#F3EEFC"/>
<path d="M15.998 5L15.8505 5.50131V20.0482L15.998 20.1954L22.7505 16.204L15.998 5Z" fill="#65678F"/>
<path d="M15.998 5L9.24551 16.204L15.998 20.1955V13.1349V5Z" fill="#8C92B2"/>
<path d="M15.998 21.474L15.9149 21.5753V26.7572L15.998 27L22.7545 17.4846L15.998 21.474Z" fill="#65678F"/>
<path d="M15.998 26.9999V21.4739L9.24551 17.4845L15.998 26.9999Z" fill="#8C92B2"/>
<path d="M15.998 20.1954L22.7504 16.2041L15.998 13.1349V20.1954Z" fill="#494976"/>
<path d="M9.24557 16.2041L15.998 20.1954V13.1349L9.24557 16.2041Z" fill="#65678F"/>
<rect x="0.5" y="0.5" width="31" height="31" rx="15.5" stroke="#5F4983" stroke-opacity="0.16"/>
</svg>