<svg width="32" height="32" viewBox="0 0 32 32" fill="none" xmlns="http://www.w3.org/2000/svg">
<rect width="32" height="32" rx="16" fill="#F3EEFC"/>
<path d="M21.1436 12.5796C20.7781 12.3708 20.3081 12.3708 19.8903 12.5796L16.9661 14.3029L14.9817 15.3995L12.1097 17.1227C11.7441 17.3316 11.2742 17.3316 10.8564 17.1227L8.61097 15.765C8.24543 15.5561 7.98433 15.1384 7.98433 14.6684V12.0574C7.98433 11.6397 8.19321 11.2219 8.61097 10.9608L10.8564 9.65536C11.2219 9.44648 11.6919 9.44648 12.1097 9.65536L14.3551 11.0131C14.7206 11.2219 14.9817 11.6397 14.9817 12.1097V13.8329L16.9661 12.6841V10.9086C16.9661 10.4909 16.7572 10.0731 16.3394 9.81202L12.1619 7.35771C11.7963 7.14883 11.3264 7.14883 10.9086 7.35771L6.62663 9.86423C6.20888 10.0731 6 10.4909 6 10.9086V15.8172C6 16.235 6.20888 16.6527 6.62663 16.9138L10.8564 19.3682C11.2219 19.577 11.6919 19.577 12.1097 19.3682L14.9817 17.6971L16.9661 16.5483L19.8381 14.8773C20.2037 14.6684 20.6736 14.6684 21.0914 14.8773L23.3368 16.1828C23.7023 16.3917 23.9634 16.8094 23.9634 17.2794V19.8903C23.9634 20.3081 23.7546 20.7259 23.3368 20.9869L21.1436 22.2924C20.7781 22.5013 20.3081 22.5013 19.8903 22.2924L17.6449 20.9869C17.2794 20.7781 17.0183 20.3603 17.0183 19.8903V18.2193L15.0339 19.3682V21.0914C15.0339 21.5091 15.2428 21.9269 15.6606 22.188L19.8903 24.6423C20.2559 24.8512 20.7258 24.8512 21.1436 24.6423L25.3734 22.188C25.7389 21.9791 26 21.5614 26 21.0914V16.1306C26 15.7128 25.7911 15.295 25.3734 15.0339L21.1436 12.5796Z" fill="#8247E5"/>
<rect x="0.5" y="0.5" width="31" height="31" rx="15.5" stroke="#5F4983" stroke-opacity="0.16"/>
</svg>