<svg width="138" height="30" viewBox="0 0 138 30" fill="none" xmlns="http://www.w3.org/2000/svg">
<path d="M15 30C23.2843 30 30 23.2843 30 15C30 6.71573 23.2843 0 15 0C6.71573 0 0 6.71573 0 15C0 23.2843 6.71573 30 15 30Z" fill="url(#paint0_linear_12_408)"/>
<path fill-rule="evenodd" clip-rule="evenodd" d="M16.9627 8.43684C16.9627 5.93023 18.2451 5.57095 19.827 5.57095V16.7615C19.827 18.0736 19.4333 19.2936 18.7576 20.3098H18.8722C21.1976 20.3098 21.7365 21.5929 21.7365 23.1757H13.4165C9.87608 23.1757 7.00598 20.304 7.00598 16.7615C7.00598 13.2191 9.87608 10.3474 13.4165 10.3474C14.7278 10.3474 15.9471 10.7413 16.9627 11.4174V8.43684ZM13.4165 20.3098C15.375 20.3098 16.9627 18.7212 16.9627 16.7615C16.9627 14.8019 15.375 13.2133 13.4165 13.2133C11.458 13.2133 9.87025 14.8019 9.87025 16.7615C9.87025 18.7212 11.458 20.3098 13.4165 20.3098Z" fill="white"/>
<path fill-rule="evenodd" clip-rule="evenodd" d="M94.6346 7.21152C94.3956 7.21152 94.2019 7.40524 94.2019 7.64421V22.0673C94.2019 22.3063 94.3956 22.5 94.6346 22.5H95.9327C96.1717 22.5 96.3654 22.3063 96.3654 22.0673V21.4958C97.3157 22.2589 98.5144 22.7163 99.8269 22.7163C102.965 22.7163 105.452 20.1012 105.452 16.9471C105.452 13.793 102.965 11.1779 99.8269 11.1779C98.5144 11.1779 97.3157 11.6353 96.3654 12.3984V7.64421C96.3654 7.40524 96.1717 7.21152 95.9327 7.21152H94.6346ZM99.8269 20.5529C97.9468 20.5529 96.3654 18.9706 96.3654 16.9471C96.3654 14.9236 97.9468 13.3413 99.8269 13.3413C101.707 13.3413 103.288 14.9236 103.288 16.9471C103.288 18.9706 101.707 20.5529 99.8269 20.5529Z" fill="#F3EEFC"/>
<path d="M119.875 8.36536L121.469 7.83405C121.749 7.74066 122.038 7.9492 122.038 8.24454V11.3942H125.644C125.883 11.3942 126.077 11.5879 126.077 11.8269V13.125C126.077 13.3639 125.883 13.5577 125.644 13.5577L122.038 13.5577V19.2479C122.038 20.0084 122.655 20.625 123.416 20.625C124.055 20.625 124.68 20.4439 125.221 20.1026C125.375 20.0055 125.578 20.0514 125.675 20.2053L126.655 21.7559L126.376 21.9318C125.49 22.4914 124.464 22.7884 123.416 22.7884C121.46 22.7884 119.875 21.2033 119.875 19.2479V8.36536Z" fill="#F3EEFC"/>
<path d="M81.5817 18.3894V11.899C81.5817 11.66 81.7755 11.4663 82.0144 11.4663H83.3125C83.5515 11.4663 83.7452 11.66 83.7452 11.899V18.2452C83.7452 19.5432 84.7461 20.625 85.9808 20.625H86.125C88.2163 20.625 89.5144 18.9633 89.5144 17.0913V11.899C89.5144 11.66 89.7081 11.4663 89.9471 11.4663H91.2452C91.4842 11.4663 91.6779 11.66 91.6779 11.899V22.0673C91.6779 22.3063 91.4842 22.5 91.2452 22.5H89.9471C89.7081 22.5 89.5144 22.3063 89.5144 22.0673V21.3459C88.5767 22.0695 87.4011 22.7163 86.125 22.7163H85.9808C83.5512 22.7163 81.5817 20.8189 81.5817 18.3894Z" fill="#F3EEFC"/>
<path fill-rule="evenodd" clip-rule="evenodd" d="M115.404 21.4958V22.0673C115.404 22.3063 115.598 22.5 115.837 22.5H117.135C117.374 22.5 117.567 22.3063 117.567 22.0673V11.899C117.567 11.66 117.374 11.4663 117.135 11.4663H115.837C115.598 11.4663 115.404 11.66 115.404 11.899V12.3984C114.453 11.6353 113.255 11.1779 111.942 11.1779C108.804 11.1779 106.317 13.793 106.317 16.9471C106.317 20.1012 108.804 22.7163 111.942 22.7163C113.255 22.7163 114.453 22.2589 115.404 21.4958ZM115.404 16.9471C115.404 14.9236 113.822 13.3413 111.942 13.3413C110.062 13.3413 108.481 14.9236 108.481 16.9471C108.481 18.9706 110.062 20.5529 111.942 20.5529C113.822 20.5529 115.404 18.9706 115.404 16.9471Z" fill="#F3EEFC"/>
<path fill-rule="evenodd" clip-rule="evenodd" d="M43 7.71633C43 7.47736 43.1937 7.28363 43.4327 7.28363H49.2019C53.0653 7.28363 56.1971 10.4155 56.1971 14.2788V15.4327C56.1971 19.296 53.0653 22.4279 49.2019 22.4279H43.4327C43.1937 22.4279 43 22.2341 43 21.9952V7.71633ZM45.1635 9.44709V20.2644H49.2019C51.8704 20.2644 54.0337 18.1012 54.0337 15.4327V14.2788C54.0337 11.6103 51.8704 9.44709 49.2019 9.44709H45.1635Z" fill="#F3EEFC"/>
<path d="M71.5577 16.9471C71.5577 14.9236 73.1391 13.3413 75.0192 13.3413C76.5163 13.3413 77.819 14.3385 78.2931 15.7723L79.9364 15.2289C80.1633 15.1539 80.2879 14.9083 80.1961 14.6876C79.345 12.6398 77.3614 11.1779 75.0192 11.1779C71.881 11.1779 69.3942 13.793 69.3942 16.9471C69.3942 20.1012 71.881 22.7163 75.0192 22.7163C77.3284 22.7163 79.2894 21.295 80.1596 19.2926C80.2548 19.0734 80.1342 18.8259 79.9085 18.7473L78.2742 18.1776C77.7848 19.5818 76.4968 20.5529 75.0192 20.5529C73.1391 20.5529 71.5577 18.9706 71.5577 16.9471Z" fill="#F3EEFC"/>
<path fill-rule="evenodd" clip-rule="evenodd" d="M59.7391 17.8846H68.2404C68.2404 17.8846 68.3846 17.3077 68.3846 16.8029C68.3846 13.6993 66.2342 11.1779 63.0481 11.1779C59.9539 11.1779 57.4231 13.6042 57.4231 16.8029C57.4231 19.9135 59.8686 22.7163 63.0481 22.7163C63.8149 22.7163 64.631 22.6818 65.5069 22.3773C66.3586 22.0813 67.1894 21.5589 68.0962 20.71C68.0962 20.71 67.4085 19.8749 66.9845 19.3779C66.8294 19.1961 66.5601 19.1883 66.3802 19.3456C65.7472 19.8991 65.24 20.1796 64.7965 20.3338C64.2744 20.5153 63.7564 20.5529 63.0481 20.5529C61.5436 20.5529 60.1838 19.4263 59.7391 17.8846ZM63.0481 13.3413C61.4947 13.3413 60.1934 14.3075 59.7496 15.7211H66.0874C65.7053 14.2606 64.5395 13.3413 63.0481 13.3413Z" fill="#F3EEFC"/>
<path fill-rule="evenodd" clip-rule="evenodd" d="M128.609 17.8846H137.111C137.111 17.8846 137.255 17.3077 137.255 16.8029C137.255 13.6993 135.104 11.1779 131.918 11.1779C128.824 11.1779 126.293 13.6042 126.293 16.8029C126.293 19.9135 128.739 22.7163 131.918 22.7163C132.685 22.7163 133.501 22.6818 134.377 22.3773C135.229 22.0813 136.06 21.5589 136.966 20.71C136.966 20.71 136.279 19.8749 135.855 19.3779C135.7 19.1961 135.43 19.1883 135.25 19.3456C134.617 19.8991 134.11 20.1796 133.667 20.3338C133.145 20.5153 132.627 20.5529 131.918 20.5529C130.414 20.5529 129.054 19.4263 128.609 17.8846ZM131.918 13.3413C130.365 13.3413 129.064 14.3075 128.62 15.7211H134.958C134.575 14.2606 133.41 13.3413 131.918 13.3413Z" fill="#F3EEFC"/>
<defs>
<linearGradient id="paint0_linear_12_408" x1="4.5" y1="25.5" x2="25.7192" y2="4.28077" gradientUnits="userSpaceOnUse">
<stop stop-color="#C91857"/>
<stop offset="1" stop-color="#3F0C78"/>
</linearGradient>
</defs>
</svg>