<svg width="147" height="34" viewBox="0 0 147 34" fill="none" xmlns="http://www.w3.org/2000/svg">
<g clip-path="url(#clip0_4389_28982)">
<mask id="mask0_4389_28982" style="mask-type:luminance" maskUnits="userSpaceOnUse" x="0" y="0" width="147" height="34">
<path d="M147 0H0V34H147V0Z" fill="white"/>
</mask>
<g mask="url(#mask0_4389_28982)">
<path d="M43.7872 0V9.27273H40.6596V0H37.5319V9.27273H34.4043V0H31.2766V9.27273H15.6383V0H12.5106V9.27273V12.3636H43.7872V15.4545H40.6596H37.5319H9.38298V0H6.25532V15.4545H3.12766V0H0V15.4545V18.5455V34H3.12766V24.7273H6.25532V34H9.38298V24.7273H12.5106V34H15.6383V24.7273H31.2766V34H34.4043V24.7273V21.6364H9.38298H6.25532H3.12766V18.5455H6.25532H9.38298H37.5319V34H40.6596V18.5455H43.7872V34H46.9149V18.5455V15.4545V12.3636V9.27273V0H43.7872Z" fill="white"/>
<path d="M68.0481 12.3636V15.7192H60.4088V12.3636H57.8617V21.5919H60.4088V18.2364H68.0481V21.5919H70.5952V12.3636H68.0481Z" fill="white"/>
<path d="M116.439 18.2363H113.892V21.5919H116.439V18.2363Z" fill="white"/>
<path d="M116.439 12.3636H113.892V15.7192H106.25V12.3636H103.703V21.5919H106.25V18.2364H113.892L116.439 15.7192V12.3636Z" fill="white"/>
<path d="M84.1791 12.3636H73.1423V21.5919H75.6894V18.2364H83.3307V21.5919H85.8778V12.3636H84.1791ZM75.6894 15.7192V14.8808H83.3307V15.7192H75.6894Z" fill="white"/>
<path d="M101.158 14.8808V12.3636H90.9699H90.1216H88.4229V21.5919H90.1216H90.9699H101.158V19.0748H90.9699V14.8808H101.158Z" fill="white"/>
<path d="M131.719 14.8808V12.3636H121.531H120.683H118.986V21.5919H120.683H121.531H131.719V19.0748H121.531V18.2364H131.719V15.7192H121.531V14.8808H131.719Z" fill="white"/>
<path d="M144.453 12.3636V18.2364L136.814 12.3636H134.266V21.5919H136.814V15.7192L144.453 21.5919H147V12.3636H144.453Z" fill="white"/>
</g>
</g>
<defs>
<clipPath id="clip0_4389_28982">
<rect width="147" height="34" fill="white"/>
</clipPath>
</defs>
</svg>